<mxfile host="Electron" modified="2023-12-13T19:34:27.944Z" agent="Mozilla/5.0 (Windows NT 10.0; Win64; x64) AppleWebKit/537.36 (KHTML, like Gecko) draw.io/22.1.2 Chrome/114.0.5735.289 Electron/25.9.4 Safari/537.36" etag="X4e__KuAiH_-_wYGL4dk" version="22.1.2" type="device">
  <diagram name="Page-1" id="Lljsix8tQL0iRCh-wcjf">
    <mxGraphModel dx="2240" dy="1809" grid="1" gridSize="10" guides="1" tooltips="1" connect="1" arrows="1" fold="1" page="1" pageScale="1.3" pageWidth="850" pageHeight="1100" math="0" shadow="0">
      <root>
        <mxCell id="0" />
        <mxCell id="1" parent="0" />
        <mxCell id="5AFt9yOQlf0K5jwDECKi-2" value="Fabric RAM&lt;br&gt;16x264" style="rounded=0;whiteSpace=wrap;html=1;" parent="1" vertex="1">
          <mxGeometry x="710" y="443" width="180" height="270" as="geometry" />
        </mxCell>
        <mxCell id="5AFt9yOQlf0K5jwDECKi-47" style="edgeStyle=orthogonalEdgeStyle;rounded=0;orthogonalLoop=1;jettySize=auto;html=1;" parent="1" target="5AFt9yOQlf0K5jwDECKi-3" edge="1">
          <mxGeometry relative="1" as="geometry">
            <mxPoint x="650" y="270" as="sourcePoint" />
            <Array as="points">
              <mxPoint x="650" y="480" />
            </Array>
          </mxGeometry>
        </mxCell>
        <mxCell id="5AFt9yOQlf0K5jwDECKi-3" value="Din" style="text;html=1;strokeColor=none;fillColor=none;align=center;verticalAlign=middle;whiteSpace=wrap;rounded=0;" parent="1" vertex="1">
          <mxGeometry x="710" y="463" width="50" height="30" as="geometry" />
        </mxCell>
        <mxCell id="5AFt9yOQlf0K5jwDECKi-4" value="Wr" style="text;html=1;strokeColor=none;fillColor=none;align=center;verticalAlign=middle;whiteSpace=wrap;rounded=0;" parent="1" vertex="1">
          <mxGeometry x="710" y="533" width="50" height="30" as="geometry" />
        </mxCell>
        <mxCell id="5AFt9yOQlf0K5jwDECKi-82" style="edgeStyle=orthogonalEdgeStyle;rounded=0;orthogonalLoop=1;jettySize=auto;html=1;exitX=0.5;exitY=0;exitDx=0;exitDy=0;" parent="1" source="5AFt9yOQlf0K5jwDECKi-68" target="5AFt9yOQlf0K5jwDECKi-5" edge="1">
          <mxGeometry relative="1" as="geometry">
            <Array as="points">
              <mxPoint x="258" y="790" />
              <mxPoint x="530" y="790" />
              <mxPoint x="530" y="508" />
            </Array>
          </mxGeometry>
        </mxCell>
        <mxCell id="5AFt9yOQlf0K5jwDECKi-5" value="Addr" style="text;html=1;strokeColor=none;fillColor=none;align=center;verticalAlign=middle;whiteSpace=wrap;rounded=0;" parent="1" vertex="1">
          <mxGeometry x="710" y="493" width="50" height="30" as="geometry" />
        </mxCell>
        <mxCell id="5AFt9yOQlf0K5jwDECKi-6" value="" style="triangle;whiteSpace=wrap;html=1;direction=south;rotation=-180;" parent="1" vertex="1">
          <mxGeometry x="775" y="673" width="50" height="40" as="geometry" />
        </mxCell>
        <mxCell id="5AFt9yOQlf0K5jwDECKi-58" style="edgeStyle=orthogonalEdgeStyle;rounded=0;orthogonalLoop=1;jettySize=auto;html=1;" parent="1" source="5AFt9yOQlf0K5jwDECKi-8" target="5AFt9yOQlf0K5jwDECKi-57" edge="1">
          <mxGeometry relative="1" as="geometry" />
        </mxCell>
        <mxCell id="5AFt9yOQlf0K5jwDECKi-8" value="dout_0" style="text;html=1;strokeColor=none;fillColor=none;align=center;verticalAlign=middle;whiteSpace=wrap;rounded=0;" parent="1" vertex="1">
          <mxGeometry x="830" y="600" width="60" height="30" as="geometry" />
        </mxCell>
        <mxCell id="5AFt9yOQlf0K5jwDECKi-24" style="edgeStyle=orthogonalEdgeStyle;rounded=0;orthogonalLoop=1;jettySize=auto;html=1;entryX=0;entryY=0.5;entryDx=0;entryDy=0;" parent="1" target="5AFt9yOQlf0K5jwDECKi-13" edge="1">
          <mxGeometry relative="1" as="geometry">
            <mxPoint x="340" y="294.9999999999998" as="sourcePoint" />
          </mxGeometry>
        </mxCell>
        <mxCell id="5AFt9yOQlf0K5jwDECKi-27" value="/8" style="edgeLabel;html=1;align=center;verticalAlign=middle;resizable=0;points=[];" parent="5AFt9yOQlf0K5jwDECKi-24" vertex="1" connectable="0">
          <mxGeometry x="-0.1273" y="2" relative="1" as="geometry">
            <mxPoint as="offset" />
          </mxGeometry>
        </mxCell>
        <mxCell id="5AFt9yOQlf0K5jwDECKi-9" value="&lt;b&gt;&lt;font color=&quot;#66cc00&quot; style=&quot;font-size: 14px;&quot;&gt;data_in&lt;/font&gt;&lt;/b&gt;" style="text;html=1;strokeColor=none;fillColor=none;align=center;verticalAlign=middle;whiteSpace=wrap;rounded=0;" parent="1" vertex="1">
          <mxGeometry x="260" y="280" width="80" height="30" as="geometry" />
        </mxCell>
        <mxCell id="5AFt9yOQlf0K5jwDECKi-10" value="&lt;br&gt;&lt;br&gt;Replace at Index" style="rounded=0;whiteSpace=wrap;html=1;" parent="1" vertex="1">
          <mxGeometry x="450" y="260" width="165" height="130" as="geometry" />
        </mxCell>
        <mxCell id="5AFt9yOQlf0K5jwDECKi-11" value="din" style="text;html=1;strokeColor=none;fillColor=none;align=center;verticalAlign=middle;whiteSpace=wrap;rounded=0;" parent="1" vertex="1">
          <mxGeometry x="450" y="260" width="60" height="30" as="geometry" />
        </mxCell>
        <mxCell id="5AFt9yOQlf0K5jwDECKi-22" style="edgeStyle=orthogonalEdgeStyle;rounded=0;orthogonalLoop=1;jettySize=auto;html=1;entryX=0.5;entryY=0;entryDx=0;entryDy=0;" parent="1" source="5AFt9yOQlf0K5jwDECKi-12" target="5AFt9yOQlf0K5jwDECKi-20" edge="1">
          <mxGeometry relative="1" as="geometry">
            <Array as="points">
              <mxPoint x="650" y="275" />
              <mxPoint x="650" y="130" />
              <mxPoint x="540" y="130" />
            </Array>
          </mxGeometry>
        </mxCell>
        <mxCell id="5AFt9yOQlf0K5jwDECKi-26" value="/264" style="edgeLabel;html=1;align=center;verticalAlign=middle;resizable=0;points=[];" parent="5AFt9yOQlf0K5jwDECKi-22" vertex="1" connectable="0">
          <mxGeometry x="-0.4387" y="2" relative="1" as="geometry">
            <mxPoint as="offset" />
          </mxGeometry>
        </mxCell>
        <mxCell id="5AFt9yOQlf0K5jwDECKi-12" value="dout" style="text;html=1;strokeColor=none;fillColor=none;align=center;verticalAlign=middle;whiteSpace=wrap;rounded=0;" parent="1" vertex="1">
          <mxGeometry x="555" y="260" width="60" height="30" as="geometry" />
        </mxCell>
        <mxCell id="5AFt9yOQlf0K5jwDECKi-13" value="new_data" style="text;html=1;strokeColor=none;fillColor=none;align=center;verticalAlign=middle;whiteSpace=wrap;rounded=0;" parent="1" vertex="1">
          <mxGeometry x="450" y="280" width="60" height="30" as="geometry" />
        </mxCell>
        <mxCell id="5AFt9yOQlf0K5jwDECKi-14" value="start_index" style="text;html=1;strokeColor=none;fillColor=none;align=center;verticalAlign=middle;whiteSpace=wrap;rounded=0;" parent="1" vertex="1">
          <mxGeometry x="450" y="300" width="60" height="30" as="geometry" />
        </mxCell>
        <mxCell id="5AFt9yOQlf0K5jwDECKi-16" value="" style="rounded=0;whiteSpace=wrap;html=1;" parent="1" vertex="1">
          <mxGeometry x="480" y="150" width="120" height="60" as="geometry" />
        </mxCell>
        <mxCell id="5AFt9yOQlf0K5jwDECKi-17" value="" style="triangle;whiteSpace=wrap;html=1;direction=east;" parent="1" vertex="1">
          <mxGeometry x="480" y="190" width="20" height="20" as="geometry" />
        </mxCell>
        <mxCell id="5AFt9yOQlf0K5jwDECKi-18" value="en" style="text;html=1;strokeColor=none;fillColor=none;align=center;verticalAlign=middle;whiteSpace=wrap;rounded=0;" parent="1" vertex="1">
          <mxGeometry x="480" y="150" width="30" height="20" as="geometry" />
        </mxCell>
        <mxCell id="5AFt9yOQlf0K5jwDECKi-19" value="rst" style="text;html=1;strokeColor=none;fillColor=none;align=center;verticalAlign=middle;whiteSpace=wrap;rounded=0;" parent="1" vertex="1">
          <mxGeometry x="480" y="170" width="30" height="20" as="geometry" />
        </mxCell>
        <mxCell id="5AFt9yOQlf0K5jwDECKi-20" value="D" style="text;html=1;strokeColor=none;fillColor=none;align=center;verticalAlign=middle;whiteSpace=wrap;rounded=0;" parent="1" vertex="1">
          <mxGeometry x="510" y="150" width="60" height="20" as="geometry" />
        </mxCell>
        <mxCell id="5AFt9yOQlf0K5jwDECKi-23" style="edgeStyle=orthogonalEdgeStyle;rounded=0;orthogonalLoop=1;jettySize=auto;html=1;entryX=0;entryY=0.5;entryDx=0;entryDy=0;" parent="1" source="5AFt9yOQlf0K5jwDECKi-21" target="5AFt9yOQlf0K5jwDECKi-11" edge="1">
          <mxGeometry relative="1" as="geometry" />
        </mxCell>
        <mxCell id="5AFt9yOQlf0K5jwDECKi-28" value="/264" style="edgeLabel;html=1;align=center;verticalAlign=middle;resizable=0;points=[];" parent="5AFt9yOQlf0K5jwDECKi-23" vertex="1" connectable="0">
          <mxGeometry x="0.0667" y="2" relative="1" as="geometry">
            <mxPoint x="19" as="offset" />
          </mxGeometry>
        </mxCell>
        <mxCell id="5AFt9yOQlf0K5jwDECKi-21" value="Q" style="text;html=1;strokeColor=none;fillColor=none;align=center;verticalAlign=middle;whiteSpace=wrap;rounded=0;" parent="1" vertex="1">
          <mxGeometry x="510" y="190" width="60" height="20" as="geometry" />
        </mxCell>
        <mxCell id="5AFt9yOQlf0K5jwDECKi-29" value="" style="edgeStyle=orthogonalEdgeStyle;rounded=0;orthogonalLoop=1;jettySize=auto;html=1;entryX=0.5;entryY=0;entryDx=0;entryDy=0;" parent="1" source="5AFt9yOQlf0K5jwDECKi-31" target="5AFt9yOQlf0K5jwDECKi-32" edge="1">
          <mxGeometry relative="1" as="geometry" />
        </mxCell>
        <mxCell id="5AFt9yOQlf0K5jwDECKi-30" value="/7" style="edgeLabel;html=1;align=center;verticalAlign=middle;resizable=0;points=[];" parent="5AFt9yOQlf0K5jwDECKi-29" vertex="1" connectable="0">
          <mxGeometry x="-0.0542" y="2" relative="1" as="geometry">
            <mxPoint as="offset" />
          </mxGeometry>
        </mxCell>
        <mxCell id="5AFt9yOQlf0K5jwDECKi-31" value="Counter++" style="rounded=0;whiteSpace=wrap;html=1;" parent="1" vertex="1">
          <mxGeometry x="120" y="408" width="120" height="60" as="geometry" />
        </mxCell>
        <mxCell id="5AFt9yOQlf0K5jwDECKi-46" style="edgeStyle=orthogonalEdgeStyle;rounded=0;orthogonalLoop=1;jettySize=auto;html=1;entryX=0;entryY=0.5;entryDx=0;entryDy=0;" parent="1" source="5AFt9yOQlf0K5jwDECKi-32" target="5AFt9yOQlf0K5jwDECKi-4" edge="1">
          <mxGeometry relative="1" as="geometry">
            <Array as="points">
              <mxPoint x="180" y="640" />
              <mxPoint x="463" y="640" />
              <mxPoint x="463" y="548" />
            </Array>
          </mxGeometry>
        </mxCell>
        <mxCell id="5AFt9yOQlf0K5jwDECKi-32" value="== 66" style="rounded=0;whiteSpace=wrap;html=1;" parent="1" vertex="1">
          <mxGeometry x="145" y="548" width="70" height="60" as="geometry" />
        </mxCell>
        <mxCell id="5AFt9yOQlf0K5jwDECKi-33" value="" style="triangle;whiteSpace=wrap;html=1;direction=east;" parent="1" vertex="1">
          <mxGeometry x="120" y="448" width="20" height="20" as="geometry" />
        </mxCell>
        <mxCell id="5AFt9yOQlf0K5jwDECKi-78" style="edgeStyle=orthogonalEdgeStyle;rounded=0;orthogonalLoop=1;jettySize=auto;html=1;" parent="1" target="5AFt9yOQlf0K5jwDECKi-34" edge="1">
          <mxGeometry relative="1" as="geometry">
            <mxPoint x="150" y="730" as="sourcePoint" />
            <Array as="points">
              <mxPoint x="151" y="730" />
              <mxPoint x="151" y="720" />
              <mxPoint x="90" y="720" />
              <mxPoint x="90" y="418" />
            </Array>
          </mxGeometry>
        </mxCell>
        <mxCell id="5AFt9yOQlf0K5jwDECKi-34" value="ld" style="text;html=1;strokeColor=none;fillColor=none;align=center;verticalAlign=middle;whiteSpace=wrap;rounded=0;" parent="1" vertex="1">
          <mxGeometry x="120" y="408" width="35" height="20" as="geometry" />
        </mxCell>
        <mxCell id="5AFt9yOQlf0K5jwDECKi-35" value="en" style="text;html=1;strokeColor=none;fillColor=none;align=center;verticalAlign=middle;whiteSpace=wrap;rounded=0;" parent="1" vertex="1">
          <mxGeometry x="120" y="428" width="35" height="20" as="geometry" />
        </mxCell>
        <mxCell id="5AFt9yOQlf0K5jwDECKi-36" value="D" style="text;html=1;strokeColor=none;fillColor=none;align=center;verticalAlign=middle;whiteSpace=wrap;rounded=0;" parent="1" vertex="1">
          <mxGeometry x="162.5" y="408" width="35" height="20" as="geometry" />
        </mxCell>
        <mxCell id="5AFt9yOQlf0K5jwDECKi-37" style="edgeStyle=orthogonalEdgeStyle;rounded=0;orthogonalLoop=1;jettySize=auto;html=1;entryX=0.5;entryY=0;entryDx=0;entryDy=0;" parent="1" source="5AFt9yOQlf0K5jwDECKi-38" target="5AFt9yOQlf0K5jwDECKi-36" edge="1">
          <mxGeometry relative="1" as="geometry" />
        </mxCell>
        <mxCell id="5AFt9yOQlf0K5jwDECKi-38" value="&#39;00 0000&#39;" style="text;html=1;align=center;verticalAlign=middle;resizable=0;points=[];autosize=1;strokeColor=none;fillColor=none;" parent="1" vertex="1">
          <mxGeometry x="145" y="330" width="70" height="30" as="geometry" />
        </mxCell>
        <mxCell id="5AFt9yOQlf0K5jwDECKi-40" style="edgeStyle=orthogonalEdgeStyle;rounded=0;orthogonalLoop=1;jettySize=auto;html=1;entryX=0.5;entryY=0;entryDx=0;entryDy=0;" parent="1" source="5AFt9yOQlf0K5jwDECKi-39" target="5AFt9yOQlf0K5jwDECKi-32" edge="1">
          <mxGeometry relative="1" as="geometry">
            <Array as="points">
              <mxPoint x="310" y="490" />
              <mxPoint x="180" y="490" />
            </Array>
          </mxGeometry>
        </mxCell>
        <mxCell id="5AFt9yOQlf0K5jwDECKi-44" style="edgeStyle=orthogonalEdgeStyle;rounded=0;orthogonalLoop=1;jettySize=auto;html=1;entryX=0;entryY=0.5;entryDx=0;entryDy=0;" parent="1" source="5AFt9yOQlf0K5jwDECKi-39" target="5AFt9yOQlf0K5jwDECKi-14" edge="1">
          <mxGeometry relative="1" as="geometry" />
        </mxCell>
        <mxCell id="5AFt9yOQlf0K5jwDECKi-45" value="/10" style="edgeLabel;html=1;align=center;verticalAlign=middle;resizable=0;points=[];" parent="5AFt9yOQlf0K5jwDECKi-44" vertex="1" connectable="0">
          <mxGeometry x="0.1556" y="1" relative="1" as="geometry">
            <mxPoint as="offset" />
          </mxGeometry>
        </mxCell>
        <mxCell id="5AFt9yOQlf0K5jwDECKi-39" value="multiply" style="rounded=0;whiteSpace=wrap;html=1;" parent="1" vertex="1">
          <mxGeometry x="290" y="510" width="70" height="60" as="geometry" />
        </mxCell>
        <mxCell id="5AFt9yOQlf0K5jwDECKi-42" style="edgeStyle=orthogonalEdgeStyle;rounded=0;orthogonalLoop=1;jettySize=auto;html=1;entryX=0.75;entryY=0;entryDx=0;entryDy=0;" parent="1" source="5AFt9yOQlf0K5jwDECKi-41" target="5AFt9yOQlf0K5jwDECKi-39" edge="1">
          <mxGeometry relative="1" as="geometry" />
        </mxCell>
        <mxCell id="5AFt9yOQlf0K5jwDECKi-43" value="/4" style="edgeLabel;html=1;align=center;verticalAlign=middle;resizable=0;points=[];" parent="5AFt9yOQlf0K5jwDECKi-42" vertex="1" connectable="0">
          <mxGeometry x="-0.4667" y="1" relative="1" as="geometry">
            <mxPoint as="offset" />
          </mxGeometry>
        </mxCell>
        <mxCell id="5AFt9yOQlf0K5jwDECKi-41" value="8" style="text;html=1;align=center;verticalAlign=middle;resizable=0;points=[];autosize=1;strokeColor=none;fillColor=none;" parent="1" vertex="1">
          <mxGeometry x="330" y="450" width="30" height="30" as="geometry" />
        </mxCell>
        <mxCell id="5AFt9yOQlf0K5jwDECKi-48" value="rd_addr_0" style="text;html=1;strokeColor=none;fillColor=none;align=center;verticalAlign=middle;whiteSpace=wrap;rounded=0;" parent="1" vertex="1">
          <mxGeometry x="710" y="600" width="60" height="30" as="geometry" />
        </mxCell>
        <mxCell id="5AFt9yOQlf0K5jwDECKi-49" value="rd_addr_1" style="text;html=1;strokeColor=none;fillColor=none;align=center;verticalAlign=middle;whiteSpace=wrap;rounded=0;" parent="1" vertex="1">
          <mxGeometry x="710" y="630" width="60" height="30" as="geometry" />
        </mxCell>
        <mxCell id="5AFt9yOQlf0K5jwDECKi-60" style="edgeStyle=orthogonalEdgeStyle;rounded=0;orthogonalLoop=1;jettySize=auto;html=1;entryX=0;entryY=0.5;entryDx=0;entryDy=0;" parent="1" source="5AFt9yOQlf0K5jwDECKi-50" target="5AFt9yOQlf0K5jwDECKi-59" edge="1">
          <mxGeometry relative="1" as="geometry" />
        </mxCell>
        <mxCell id="5AFt9yOQlf0K5jwDECKi-50" value="dout_1" style="text;html=1;strokeColor=none;fillColor=none;align=center;verticalAlign=middle;whiteSpace=wrap;rounded=0;" parent="1" vertex="1">
          <mxGeometry x="830" y="630" width="60" height="30" as="geometry" />
        </mxCell>
        <mxCell id="5AFt9yOQlf0K5jwDECKi-52" style="edgeStyle=orthogonalEdgeStyle;rounded=0;orthogonalLoop=1;jettySize=auto;html=1;" parent="1" source="5AFt9yOQlf0K5jwDECKi-51" target="5AFt9yOQlf0K5jwDECKi-48" edge="1">
          <mxGeometry relative="1" as="geometry" />
        </mxCell>
        <mxCell id="5AFt9yOQlf0K5jwDECKi-55" value="/4" style="edgeLabel;html=1;align=center;verticalAlign=middle;resizable=0;points=[];" parent="5AFt9yOQlf0K5jwDECKi-52" vertex="1" connectable="0">
          <mxGeometry x="-0.0667" relative="1" as="geometry">
            <mxPoint as="offset" />
          </mxGeometry>
        </mxCell>
        <mxCell id="5AFt9yOQlf0K5jwDECKi-51" value="&lt;b&gt;&lt;font color=&quot;#66cc00&quot; style=&quot;font-size: 14px;&quot;&gt;rd_addr_0&lt;/font&gt;&lt;/b&gt;" style="text;html=1;strokeColor=none;fillColor=none;align=center;verticalAlign=middle;whiteSpace=wrap;rounded=0;" parent="1" vertex="1">
          <mxGeometry x="555" y="600" width="80" height="30" as="geometry" />
        </mxCell>
        <mxCell id="5AFt9yOQlf0K5jwDECKi-54" style="edgeStyle=orthogonalEdgeStyle;rounded=0;orthogonalLoop=1;jettySize=auto;html=1;entryX=0;entryY=0.5;entryDx=0;entryDy=0;" parent="1" source="5AFt9yOQlf0K5jwDECKi-53" target="5AFt9yOQlf0K5jwDECKi-49" edge="1">
          <mxGeometry relative="1" as="geometry" />
        </mxCell>
        <mxCell id="5AFt9yOQlf0K5jwDECKi-56" value="/4" style="edgeLabel;html=1;align=center;verticalAlign=middle;resizable=0;points=[];" parent="5AFt9yOQlf0K5jwDECKi-54" vertex="1" connectable="0">
          <mxGeometry x="-0.04" y="1" relative="1" as="geometry">
            <mxPoint as="offset" />
          </mxGeometry>
        </mxCell>
        <mxCell id="5AFt9yOQlf0K5jwDECKi-53" value="&lt;b&gt;&lt;font color=&quot;#66cc00&quot; style=&quot;font-size: 14px;&quot;&gt;rd_addr_1&lt;/font&gt;&lt;/b&gt;" style="text;html=1;strokeColor=none;fillColor=none;align=center;verticalAlign=middle;whiteSpace=wrap;rounded=0;" parent="1" vertex="1">
          <mxGeometry x="555" y="630" width="80" height="30" as="geometry" />
        </mxCell>
        <mxCell id="5AFt9yOQlf0K5jwDECKi-57" value="&lt;b&gt;&lt;font color=&quot;#ff0000&quot; style=&quot;font-size: 14px;&quot;&gt;rd_data_0&lt;/font&gt;&lt;/b&gt;" style="text;html=1;strokeColor=none;fillColor=none;align=center;verticalAlign=middle;whiteSpace=wrap;rounded=0;" parent="1" vertex="1">
          <mxGeometry x="960" y="600" width="80" height="30" as="geometry" />
        </mxCell>
        <mxCell id="5AFt9yOQlf0K5jwDECKi-59" value="&lt;b&gt;&lt;font color=&quot;#ff0000&quot; style=&quot;font-size: 14px;&quot;&gt;rd_data_1&lt;/font&gt;&lt;/b&gt;" style="text;html=1;strokeColor=none;fillColor=none;align=center;verticalAlign=middle;whiteSpace=wrap;rounded=0;" parent="1" vertex="1">
          <mxGeometry x="960" y="630" width="80" height="30" as="geometry" />
        </mxCell>
        <mxCell id="5AFt9yOQlf0K5jwDECKi-62" style="edgeStyle=orthogonalEdgeStyle;rounded=0;orthogonalLoop=1;jettySize=auto;html=1;exitX=0.5;exitY=1;exitDx=0;exitDy=0;entryX=0;entryY=0.5;entryDx=0;entryDy=0;" parent="1" source="5AFt9yOQlf0K5jwDECKi-32" target="5AFt9yOQlf0K5jwDECKi-71" edge="1">
          <mxGeometry relative="1" as="geometry">
            <mxPoint x="180" y="690" as="targetPoint" />
          </mxGeometry>
        </mxCell>
        <mxCell id="5AFt9yOQlf0K5jwDECKi-64" value="wr_ready" style="text;html=1;align=center;verticalAlign=middle;resizable=0;points=[];autosize=1;strokeColor=none;fillColor=none;" parent="1" vertex="1">
          <mxGeometry x="215" y="608" width="70" height="30" as="geometry" />
        </mxCell>
        <mxCell id="5AFt9yOQlf0K5jwDECKi-65" value="" style="edgeStyle=orthogonalEdgeStyle;rounded=0;orthogonalLoop=1;jettySize=auto;html=1;entryX=0.5;entryY=0;entryDx=0;entryDy=0;" parent="1" source="5AFt9yOQlf0K5jwDECKi-67" target="5AFt9yOQlf0K5jwDECKi-68" edge="1">
          <mxGeometry relative="1" as="geometry" />
        </mxCell>
        <mxCell id="5AFt9yOQlf0K5jwDECKi-66" value="/7" style="edgeLabel;html=1;align=center;verticalAlign=middle;resizable=0;points=[];" parent="5AFt9yOQlf0K5jwDECKi-65" vertex="1" connectable="0">
          <mxGeometry x="-0.0542" y="2" relative="1" as="geometry">
            <mxPoint as="offset" />
          </mxGeometry>
        </mxCell>
        <mxCell id="5AFt9yOQlf0K5jwDECKi-79" value="/4" style="edgeLabel;html=1;align=center;verticalAlign=middle;resizable=0;points=[];" parent="5AFt9yOQlf0K5jwDECKi-65" vertex="1" connectable="0">
          <mxGeometry x="-0.05" y="1" relative="1" as="geometry">
            <mxPoint as="offset" />
          </mxGeometry>
        </mxCell>
        <mxCell id="5AFt9yOQlf0K5jwDECKi-67" value="Counter++" style="rounded=0;whiteSpace=wrap;html=1;" parent="1" vertex="1">
          <mxGeometry x="197.5" y="710" width="120" height="60" as="geometry" />
        </mxCell>
        <mxCell id="5AFt9yOQlf0K5jwDECKi-68" value="== 9" style="rounded=0;whiteSpace=wrap;html=1;" parent="1" vertex="1">
          <mxGeometry x="222.5" y="850" width="70" height="60" as="geometry" />
        </mxCell>
        <mxCell id="5AFt9yOQlf0K5jwDECKi-69" value="" style="triangle;whiteSpace=wrap;html=1;direction=east;" parent="1" vertex="1">
          <mxGeometry x="197.5" y="750" width="20" height="20" as="geometry" />
        </mxCell>
        <mxCell id="5AFt9yOQlf0K5jwDECKi-70" value="ld" style="text;html=1;strokeColor=none;fillColor=none;align=center;verticalAlign=middle;whiteSpace=wrap;rounded=0;" parent="1" vertex="1">
          <mxGeometry x="197.5" y="710" width="35" height="20" as="geometry" />
        </mxCell>
        <mxCell id="5AFt9yOQlf0K5jwDECKi-71" value="en" style="text;html=1;strokeColor=none;fillColor=none;align=center;verticalAlign=middle;whiteSpace=wrap;rounded=0;" parent="1" vertex="1">
          <mxGeometry x="197.5" y="730" width="35" height="20" as="geometry" />
        </mxCell>
        <mxCell id="5AFt9yOQlf0K5jwDECKi-72" value="D" style="text;html=1;strokeColor=none;fillColor=none;align=center;verticalAlign=middle;whiteSpace=wrap;rounded=0;" parent="1" vertex="1">
          <mxGeometry x="240" y="710" width="35" height="20" as="geometry" />
        </mxCell>
        <mxCell id="5AFt9yOQlf0K5jwDECKi-75" style="edgeStyle=orthogonalEdgeStyle;rounded=0;orthogonalLoop=1;jettySize=auto;html=1;exitX=0.5;exitY=1;exitDx=0;exitDy=0;entryX=0;entryY=0.5;entryDx=0;entryDy=0;" parent="1" source="5AFt9yOQlf0K5jwDECKi-68" target="5AFt9yOQlf0K5jwDECKi-70" edge="1">
          <mxGeometry relative="1" as="geometry">
            <mxPoint x="257.5" y="992" as="targetPoint" />
            <Array as="points">
              <mxPoint x="258" y="930" />
              <mxPoint x="150" y="930" />
              <mxPoint x="150" y="720" />
            </Array>
          </mxGeometry>
        </mxCell>
        <mxCell id="5AFt9yOQlf0K5jwDECKi-77" style="edgeStyle=orthogonalEdgeStyle;rounded=0;orthogonalLoop=1;jettySize=auto;html=1;entryX=0;entryY=0.5;entryDx=0;entryDy=0;" parent="1" source="5AFt9yOQlf0K5jwDECKi-76" target="5AFt9yOQlf0K5jwDECKi-35" edge="1">
          <mxGeometry relative="1" as="geometry" />
        </mxCell>
        <mxCell id="5AFt9yOQlf0K5jwDECKi-76" value="&lt;b&gt;&lt;font color=&quot;#66cc00&quot; style=&quot;font-size: 14px;&quot;&gt;load&lt;/font&gt;&lt;/b&gt;" style="text;html=1;strokeColor=none;fillColor=none;align=center;verticalAlign=middle;whiteSpace=wrap;rounded=0;" parent="1" vertex="1">
          <mxGeometry x="10" y="423" width="50" height="30" as="geometry" />
        </mxCell>
        <mxCell id="5AFt9yOQlf0K5jwDECKi-81" style="edgeStyle=orthogonalEdgeStyle;rounded=0;orthogonalLoop=1;jettySize=auto;html=1;exitX=0.5;exitY=1;exitDx=0;exitDy=0;" parent="1" source="5AFt9yOQlf0K5jwDECKi-68" target="5AFt9yOQlf0K5jwDECKi-80" edge="1">
          <mxGeometry relative="1" as="geometry" />
        </mxCell>
        <mxCell id="5AFt9yOQlf0K5jwDECKi-80" value="&lt;b&gt;&lt;font color=&quot;#ff0000&quot; style=&quot;font-size: 14px;&quot;&gt;done&lt;/font&gt;&lt;/b&gt;" style="text;html=1;strokeColor=none;fillColor=none;align=center;verticalAlign=middle;whiteSpace=wrap;rounded=0;direction=west;" parent="1" vertex="1">
          <mxGeometry x="217.5" y="980" width="80" height="30" as="geometry" />
        </mxCell>
      </root>
    </mxGraphModel>
  </diagram>
</mxfile>
